# xmcd
# 
# Track frame offsets:
#     150
#     13945
#     26807
#     39979
#     53225
#     66152
#     78100
#     91357
#     104049
#     114844
#     127323
#     139488
#     152870
#     166375
# 
# Disc length: 2409
# 
# Revision: 1
# Processed by: cddbd v1.5.2PL0 Copyright (c) Steve Scherf et al.
# Submitted via: BonkEnc v1.0.15
# 
DISCID=c309670e
DTITLE=Various Artist - Never Get Out Of These Blues Alive - 14 blues gems for the next generation
DYEAR=0
DGENRE=Blues
TTITLE0=Elmore James - Please Find My Baby
TTITLE1=Skip James - Hard Time Killing Floor Blues
TTITLE2=Tommy Bradley - Nobody's Business If I Do
TTITLE3=Otis Rush - Checkin' On My Baby
TTITLE4=Henry Thomas - Old Country Stomp
TTITLE5=Othum Brown and Little Walter - Ora Nelle Blues
TTITLE6=Howlin' Wolf - Moanin' At Midnight
TTITLE7=Jimmy Reed - My First Plea
TTITLE8=Magic Sam - Out Of Bad Luck
TTITLE9=Muddy Waters - I'm Your Hoochie Coochie Man
TTITLE10=Lafayette Thomas - Jumpin' In The Heart Of Town
TTITLE11=Moanin' Bernice Edwards - Southbound Blues
TTITLE12=Skip James - Devil Got My Woman
TTITLE13=St. Louis Jimmy - Goin' Down Slow
EXTD=blues and soul records No.55
EXTT0=
EXTT1=
EXTT2=
EXTT3=
EXTT4=
EXTT5=
EXTT6=
EXTT7=
EXTT8=
EXTT9=
EXTT10=
EXTT11=
EXTT12=
EXTT13=
PLAYORDER=
